UNKNOWN
version=1
nRows=38
nColumns=9
inDegrees=no
endheader
time	time	pelvis_tilt	hip_flexion_r	hip_flexion_l	knee_angle_r	knee_angle_l	ankle_angle_r	ankle_angle_l
    176.00000000	      6.13000000	     -4.68728664	    -27.82993181	     10.13796702	     -1.11116241	    -21.66885545	      6.53839601	      1.65131316
    177.00000000	      6.14000000	     -5.08332745	    -29.34584595	      9.32136117	     -0.58471968	    -16.91527565	      6.74699378	      2.12546114
    178.00000000	      6.15000000	     -5.42461595	    -30.84609615	      8.41071923	     -0.15698372	    -12.21631364	      6.97272903	      2.39360438
    179.00000000	      6.16000000	     -5.73882195	    -32.23359168	      7.46282016	      0.07525623	     -7.72207226	      7.22042266	      2.46046063
    180.00000000	      6.17000000	     -6.13116258	    -33.39994457	      6.47502968	     -0.10387589	     -3.60805143	      7.58203329	      2.37402649
    181.00000000	      6.18000000	     -6.66391378	    -34.28722779	      5.50988666	     -0.72228362	     -0.10094671	      7.97500417	      2.15154805
    182.00000000	      6.19000000	     -7.44653653	    -34.81639362	      4.60066903	     -1.92284004	      2.54734436	      8.41612177	      1.88974224
    183.00000000	      6.20000000	     -8.45045223	    -35.02736957	      3.77861751	     -3.67027315	      4.13891971	      8.84321538	      1.70874227
    184.00000000	      6.21000000	     -7.69982762	    -35.85498698	      3.72592838	     -4.28700151	      4.94072652	      9.12644496	      1.82692825
    185.00000000	      6.22000000	     -6.64553165	    -36.48648886	      3.97431009	     -5.08994929	      4.73374609	      9.33675957	      2.01597478
    186.00000000	      6.23000000	     -6.88362594	    -36.25953888	      3.97075802	     -7.32887303	      3.45840954	      9.53548728	      2.00959745
    187.00000000	      6.24000000	     -6.81035459	    -35.99238077	      4.09891972	     -9.59609296	      1.68894664	      9.53515212	      1.79078970
    188.00000000	      6.25000000	     -6.49356938	    -35.69431932	      4.27597766	    -11.89379632	     -0.25993411	      9.25364147	      1.16580577
    189.00000000	      6.26000000	     -6.03570273	    -35.34948053	      4.41380764	    -14.26029132	     -2.12413379	      8.63164727	     -0.00441073
    190.00000000	      6.27000000	     -5.49767483	    -34.91939381	      4.38630340	    -16.79962051	     -3.68085152	      7.63214953	     -1.72855615
    191.00000000	      6.28000000	     -4.88197099	    -34.34036214	      4.18392929	    -19.55393617	     -4.95043131	      6.17547420	     -3.75033807
    192.00000000	      6.29000000	     -4.16443107	    -33.53486428	      3.87450170	    -22.59508417	     -6.07925820	      4.23385111	     -5.63970600
    193.00000000	      6.30000000	     -3.33941887	    -32.41043668	      3.58924959	    -25.96354560	     -7.29589527	      1.74695607	     -6.91923221
    194.00000000	      6.31000000	     -2.39956310	    -30.94264851	      3.45562896	    -29.62937703	     -8.78569313	     -1.31204205	     -7.34903234
    195.00000000	      6.32000000	     -1.40330793	    -29.15589397	      3.51351429	    -33.50024871	    -10.58206350	     -4.93360047	     -6.97865879
    196.00000000	      6.33000000	     -0.45031913	    -27.15473264	      3.65764468	    -37.41900215	    -12.54595088	     -9.04766152	     -6.01292281
    197.00000000	      6.34000000	      0.35627879	    -25.12508122	      3.70875163	    -41.16773548	    -14.46483334	    -13.53087780	     -4.67915893
    198.00000000	      6.35000000	      0.98192662	    -23.12230677	      3.55619303	    -44.65541883	    -16.14156375	    -17.98266568	     -3.19578893
    199.00000000	      6.36000000	      1.40650851	    -21.30238136	      3.00862133	    -47.79708834	    -17.39057804	    -21.88733329	     -1.70083646
    200.00000000	      6.37000000	      1.65283248	    -19.52964978	      2.21321503	    -50.64443184	    -18.20892381	    -24.69642523	     -0.33032947
    201.00000000	      6.38000000	      1.76090644	    -17.79440365	      1.19837010	    -53.21467187	    -18.58116110	    -26.00895099	      0.83305088
    202.00000000	      6.39000000	      1.77344309	    -16.02906253	      0.06736760	    -55.49788807	    -18.53541153	    -25.78414235	      1.72770261
    203.00000000	      6.40000000	      1.71520432	    -14.21212656	     -1.10647584	    -57.47775642	    -18.17098438	    -24.30211126	      2.32815228
    204.00000000	      6.41000000	      1.61737943	    -12.33297680	     -2.29224087	    -59.11635255	    -17.51178661	    -21.99320644	      2.68112617
    205.00000000	      6.42000000	      1.52565356	    -10.34404460	     -3.40403891	    -60.45600432	    -16.70508771	    -19.40941830	      2.88199551
    206.00000000	      6.43000000	      1.39769185	     -8.36437038	     -4.55514178	    -61.46012038	    -15.76961480	    -16.91487331	      2.98222111
    207.00000000	      6.44000000	      1.24194495	     -6.33246419	     -5.60673576	    -62.15351304	    -14.83500078	    -14.75660955	      3.03054462
    208.00000000	      6.45000000	      1.08658090	     -4.39838696	     -6.71298276	    -62.52234689	    -13.88114520	    -12.94271555	      3.11002196
    209.00000000	      6.46000000	      0.89297027	     -2.58724562	     -7.84873619	    -62.54964735	    -12.93899246	    -11.41112458	      3.21297307
    210.00000000	      6.47000000	      0.67330596	     -0.87694376	     -8.93369849	    -62.25053845	    -12.07986989	    -10.04232660	      3.37598313
    211.00000000	      6.48000000	      0.42326584	      0.67164583	    -10.02163964	    -61.60853885	    -11.27357355	     -8.72407993	      3.58257381
    212.00000000	      6.49000000	      0.17036466	      2.06705516	    -11.10482606	    -60.64862211	    -10.51943381	     -7.35938095	      3.82686454
    213.00000000	      6.50000000	     -0.08189507	      3.27687729	    -12.21579192	    -59.36414761	     -9.81065844	     -5.95094924	      4.09835287
